<mxfile host="Electron" modified="2023-08-02T14:43:32.946Z" agent="Mozilla/5.0 (Windows NT 10.0; Win64; x64) AppleWebKit/537.36 (KHTML, like Gecko) draw.io/21.6.1 Chrome/112.0.5615.204 Electron/24.6.1 Safari/537.36" etag="20J26BnaBMvO9foWqQew" version="21.6.1" type="device">
  <diagram name="Page-1" id="OpWTwDbj9fGWJGAPWJQz">
    <mxGraphModel dx="1031" dy="214" grid="1" gridSize="10" guides="1" tooltips="1" connect="1" arrows="1" fold="1" page="1" pageScale="1" pageWidth="390" pageHeight="610" math="0" shadow="0">
      <root>
        <mxCell id="0" />
        <mxCell id="1" parent="0" />
        <mxCell id="vBTqLdXRIyOvVhQML8VP-46" value="" style="rounded=1;whiteSpace=wrap;html=1;align=left;arcSize=5;" parent="1" vertex="1">
          <mxGeometry x="390" y="680" width="390" height="135" as="geometry" />
        </mxCell>
        <mxCell id="vBTqLdXRIyOvVhQML8VP-76" value="&lt;font style=&quot;font-size: 7px;&quot;&gt;&lt;br&gt;User&lt;/font&gt;" style="shape=actor;whiteSpace=wrap;html=1;" parent="1" vertex="1">
          <mxGeometry x="622" y="620" width="35" height="40" as="geometry" />
        </mxCell>
        <mxCell id="vBTqLdXRIyOvVhQML8VP-78" value="" style="endArrow=classic;html=1;rounded=0;entryX=0.5;entryY=0;entryDx=0;entryDy=0;startArrow=none;startFill=0;exitX=0.5;exitY=1;exitDx=0;exitDy=0;dashed=1;" parent="1" source="vBTqLdXRIyOvVhQML8VP-76" target="vBTqLdXRIyOvVhQML8VP-87" edge="1">
          <mxGeometry width="50" height="50" relative="1" as="geometry">
            <mxPoint x="630" y="645" as="sourcePoint" />
            <mxPoint x="640" y="685" as="targetPoint" />
          </mxGeometry>
        </mxCell>
        <mxCell id="vBTqLdXRIyOvVhQML8VP-87" value="&lt;p style=&quot;line-height: 70%;&quot;&gt;&lt;font style=&quot;font-size: 7px;&quot;&gt;Choose test subject activtiy&lt;/font&gt;&lt;/p&gt;" style="rounded=1;whiteSpace=wrap;html=1;fillColor=#00FFFF;" parent="1" vertex="1">
          <mxGeometry x="525" y="710" width="50" height="75" as="geometry" />
        </mxCell>
        <mxCell id="vBTqLdXRIyOvVhQML8VP-88" value="&lt;p style=&quot;line-height: 70%;&quot;&gt;&lt;font style=&quot;font-size: 7px;&quot;&gt;Info screen Activtiy&lt;/font&gt;&lt;br&gt;&lt;/p&gt;" style="rounded=1;whiteSpace=wrap;html=1;fillColor=#00FFFF;" parent="1" vertex="1">
          <mxGeometry x="614.5" y="710" width="50" height="75" as="geometry" />
        </mxCell>
        <mxCell id="vBTqLdXRIyOvVhQML8VP-89" value="&lt;p style=&quot;line-height: 70%;&quot;&gt;&lt;font style=&quot;font-size: 7px;&quot;&gt;Questionair Activity&lt;/font&gt;&lt;br&gt;&lt;/p&gt;" style="rounded=1;whiteSpace=wrap;html=1;fillColor=#00FFFF;" parent="1" vertex="1">
          <mxGeometry x="705" y="710" width="50" height="75" as="geometry" />
        </mxCell>
        <mxCell id="vBTqLdXRIyOvVhQML8VP-90" value="" style="endArrow=classic;html=1;rounded=0;entryX=0.5;entryY=0;entryDx=0;entryDy=0;startArrow=none;startFill=0;exitX=0.5;exitY=1;exitDx=0;exitDy=0;dashed=1;" parent="1" source="vBTqLdXRIyOvVhQML8VP-76" target="vBTqLdXRIyOvVhQML8VP-88" edge="1">
          <mxGeometry width="50" height="50" relative="1" as="geometry">
            <mxPoint x="640" y="615" as="sourcePoint" />
            <mxPoint x="525" y="705" as="targetPoint" />
          </mxGeometry>
        </mxCell>
        <mxCell id="vBTqLdXRIyOvVhQML8VP-91" value="" style="endArrow=classic;html=1;rounded=0;entryX=0.5;entryY=0;entryDx=0;entryDy=0;startArrow=none;startFill=0;exitX=0.5;exitY=1;exitDx=0;exitDy=0;dashed=1;" parent="1" source="vBTqLdXRIyOvVhQML8VP-76" target="vBTqLdXRIyOvVhQML8VP-89" edge="1">
          <mxGeometry width="50" height="50" relative="1" as="geometry">
            <mxPoint x="640" y="615" as="sourcePoint" />
            <mxPoint x="630" y="705" as="targetPoint" />
          </mxGeometry>
        </mxCell>
        <mxCell id="CFkPCi290hcitypG1Kth-1" value="" style="rounded=1;whiteSpace=wrap;html=1;align=left;arcSize=5;" parent="1" vertex="1">
          <mxGeometry x="390" y="815" width="390" height="215" as="geometry" />
        </mxCell>
        <mxCell id="CFkPCi290hcitypG1Kth-2" style="edgeStyle=orthogonalEdgeStyle;rounded=0;orthogonalLoop=1;jettySize=auto;html=1;entryX=0.5;entryY=0;entryDx=0;entryDy=0;" parent="1" source="CFkPCi290hcitypG1Kth-3" target="CFkPCi290hcitypG1Kth-7" edge="1">
          <mxGeometry relative="1" as="geometry">
            <Array as="points">
              <mxPoint x="648" y="870" />
            </Array>
          </mxGeometry>
        </mxCell>
        <mxCell id="CFkPCi290hcitypG1Kth-3" value="&lt;p style=&quot;line-height: 70%;&quot;&gt;&lt;font style=&quot;font-size: 7px;&quot;&gt;AllocateGroupUseCase&lt;/font&gt;&lt;br&gt;&lt;/p&gt;" style="rounded=1;whiteSpace=wrap;html=1;fillColor=#66FF66;" parent="1" vertex="1">
          <mxGeometry x="660" y="860" width="110" height="20" as="geometry" />
        </mxCell>
        <mxCell id="CFkPCi290hcitypG1Kth-4" value="" style="rounded=1;whiteSpace=wrap;html=1;align=left;arcSize=5;" parent="1" vertex="1">
          <mxGeometry x="390" y="1030" width="390" height="180" as="geometry" />
        </mxCell>
        <mxCell id="CFkPCi290hcitypG1Kth-5" style="edgeStyle=orthogonalEdgeStyle;rounded=0;orthogonalLoop=1;jettySize=auto;html=1;entryX=0.5;entryY=0;entryDx=0;entryDy=0;entryPerimeter=0;" parent="1" source="CFkPCi290hcitypG1Kth-6" target="CFkPCi290hcitypG1Kth-17" edge="1">
          <mxGeometry relative="1" as="geometry" />
        </mxCell>
        <mxCell id="CFkPCi290hcitypG1Kth-6" value="&lt;p style=&quot;line-height: 70%;&quot;&gt;&lt;font style=&quot;font-size: 7px;&quot;&gt;ExperimentRepository&lt;/font&gt;&lt;/p&gt;" style="rounded=1;whiteSpace=wrap;html=1;fillColor=#7EA6E0;" parent="1" vertex="1">
          <mxGeometry x="470" y="1060" width="90" height="20" as="geometry" />
        </mxCell>
        <mxCell id="CFkPCi290hcitypG1Kth-7" value="&lt;p style=&quot;line-height: 70%;&quot;&gt;&lt;font style=&quot;font-size: 7px;&quot;&gt;ParticipantRepository&lt;/font&gt;&lt;/p&gt;" style="rounded=1;whiteSpace=wrap;html=1;fillColor=#66FF66;" parent="1" vertex="1">
          <mxGeometry x="603" y="1060" width="90" height="20" as="geometry" />
        </mxCell>
        <mxCell id="CFkPCi290hcitypG1Kth-8" style="edgeStyle=orthogonalEdgeStyle;rounded=0;orthogonalLoop=1;jettySize=auto;html=1;entryX=0.5;entryY=0;entryDx=0;entryDy=0;entryPerimeter=0;" parent="1" source="CFkPCi290hcitypG1Kth-9" edge="1">
          <mxGeometry relative="1" as="geometry">
            <mxPoint x="580.0000000000001" y="1140" as="targetPoint" />
          </mxGeometry>
        </mxCell>
        <mxCell id="CFkPCi290hcitypG1Kth-9" value="&lt;p style=&quot;line-height: 70%;&quot;&gt;&lt;font style=&quot;font-size: 7px;&quot;&gt;ParticipantRepository&lt;/font&gt;&lt;/p&gt;" style="rounded=1;whiteSpace=wrap;html=1;fillColor=#66FF66;" parent="1" vertex="1">
          <mxGeometry x="535" y="1100" width="90" height="20" as="geometry" />
        </mxCell>
        <mxCell id="CFkPCi290hcitypG1Kth-10" value="&lt;p style=&quot;line-height: 70%;&quot;&gt;&lt;font style=&quot;font-size: 7px;&quot;&gt;OtherRepository&lt;/font&gt;&lt;/p&gt;" style="rounded=1;whiteSpace=wrap;html=1;fillColor=#8f8f8f;" parent="1" vertex="1">
          <mxGeometry x="665" y="1100" width="90" height="20" as="geometry" />
        </mxCell>
        <mxCell id="CFkPCi290hcitypG1Kth-11" value="&lt;p style=&quot;line-height: 70%; font-size: 7px;&quot;&gt;&lt;font style=&quot;font-size: 7px;&quot;&gt;Other Data Source&lt;/font&gt;&lt;/p&gt;" style="rounded=1;whiteSpace=wrap;html=1;fillColor=#8f8f8f;" parent="1" vertex="1">
          <mxGeometry x="665" y="1140" width="90" height="20" as="geometry" />
        </mxCell>
        <mxCell id="CFkPCi290hcitypG1Kth-12" value="" style="endArrow=classic;html=1;rounded=0;exitX=0.5;exitY=1;exitDx=0;exitDy=0;entryX=0.5;entryY=0;entryDx=0;entryDy=0;" parent="1" source="CFkPCi290hcitypG1Kth-7" target="CFkPCi290hcitypG1Kth-9" edge="1">
          <mxGeometry width="50" height="50" relative="1" as="geometry">
            <mxPoint x="498" y="1090" as="sourcePoint" />
            <mxPoint x="498" y="1125" as="targetPoint" />
          </mxGeometry>
        </mxCell>
        <mxCell id="CFkPCi290hcitypG1Kth-13" value="" style="endArrow=classic;html=1;rounded=0;entryX=0.5;entryY=0;entryDx=0;entryDy=0;exitX=0.5;exitY=1;exitDx=0;exitDy=0;" parent="1" source="CFkPCi290hcitypG1Kth-7" target="CFkPCi290hcitypG1Kth-10" edge="1">
          <mxGeometry width="50" height="50" relative="1" as="geometry">
            <mxPoint x="665" y="1080" as="sourcePoint" />
            <mxPoint x="610" y="1125" as="targetPoint" />
          </mxGeometry>
        </mxCell>
        <mxCell id="CFkPCi290hcitypG1Kth-14" value="" style="endArrow=classic;html=1;rounded=0;exitX=0.25;exitY=1;exitDx=0;exitDy=0;entryX=0.25;entryY=0;entryDx=0;entryDy=0;" parent="1" source="CFkPCi290hcitypG1Kth-10" target="CFkPCi290hcitypG1Kth-11" edge="1">
          <mxGeometry width="50" height="50" relative="1" as="geometry">
            <mxPoint x="638" y="1155" as="sourcePoint" />
            <mxPoint x="638" y="1190" as="targetPoint" />
          </mxGeometry>
        </mxCell>
        <mxCell id="CFkPCi290hcitypG1Kth-15" value="" style="endArrow=classic;html=1;rounded=0;exitX=0.75;exitY=1;exitDx=0;exitDy=0;entryX=0.75;entryY=0;entryDx=0;entryDy=0;" parent="1" source="CFkPCi290hcitypG1Kth-10" target="CFkPCi290hcitypG1Kth-11" edge="1">
          <mxGeometry width="50" height="50" relative="1" as="geometry">
            <mxPoint x="712" y="1155" as="sourcePoint" />
            <mxPoint x="712" y="1190" as="targetPoint" />
          </mxGeometry>
        </mxCell>
        <mxCell id="CFkPCi290hcitypG1Kth-16" value="" style="group" parent="1" vertex="1" connectable="0">
          <mxGeometry x="436" y="1140" width="48" height="60" as="geometry" />
        </mxCell>
        <mxCell id="CFkPCi290hcitypG1Kth-17" value="&lt;p style=&quot;line-height: 70%;&quot;&gt;&lt;span style=&quot;font-size: 7px; background-color: initial;&quot;&gt;Experiment Data Source&lt;/span&gt;&lt;br&gt;&lt;/p&gt;" style="shape=note;whiteSpace=wrap;html=1;backgroundOutline=1;darkOpacity=0.05;aspect=fixed;size=14;" parent="CFkPCi290hcitypG1Kth-16" vertex="1">
          <mxGeometry width="48" height="60" as="geometry" />
        </mxCell>
        <mxCell id="CFkPCi290hcitypG1Kth-18" value="&lt;font style=&quot;font-size: 7px;&quot;&gt;.csv&lt;/font&gt;" style="text;html=1;strokeColor=none;fillColor=none;align=center;verticalAlign=middle;whiteSpace=wrap;rounded=0;" parent="CFkPCi290hcitypG1Kth-16" vertex="1">
          <mxGeometry x="28" y="47" width="19" height="10" as="geometry" />
        </mxCell>
        <mxCell id="CFkPCi290hcitypG1Kth-19" value="" style="group" parent="1" vertex="1" connectable="0">
          <mxGeometry x="555" y="1140" width="48" height="60" as="geometry" />
        </mxCell>
        <mxCell id="CFkPCi290hcitypG1Kth-20" value="&lt;p style=&quot;line-height: 70%;&quot;&gt;&lt;span style=&quot;font-size: 7px; background-color: initial;&quot;&gt;Participant Data Source&lt;/span&gt;&lt;br&gt;&lt;/p&gt;" style="shape=note;whiteSpace=wrap;html=1;backgroundOutline=1;darkOpacity=0.05;aspect=fixed;size=14;" parent="CFkPCi290hcitypG1Kth-19" vertex="1">
          <mxGeometry width="48" height="60" as="geometry" />
        </mxCell>
        <mxCell id="CFkPCi290hcitypG1Kth-21" value="&lt;font style=&quot;font-size: 7px;&quot;&gt;.csv&lt;/font&gt;" style="text;html=1;strokeColor=none;fillColor=none;align=center;verticalAlign=middle;whiteSpace=wrap;rounded=0;" parent="CFkPCi290hcitypG1Kth-19" vertex="1">
          <mxGeometry x="28" y="47" width="19" height="10" as="geometry" />
        </mxCell>
        <mxCell id="CFkPCi290hcitypG1Kth-22" style="edgeStyle=orthogonalEdgeStyle;rounded=0;orthogonalLoop=1;jettySize=auto;html=1;entryX=0.5;entryY=0;entryDx=0;entryDy=0;" parent="1" source="CFkPCi290hcitypG1Kth-23" target="CFkPCi290hcitypG1Kth-7" edge="1">
          <mxGeometry relative="1" as="geometry">
            <Array as="points">
              <mxPoint x="580" y="1010" />
              <mxPoint x="648" y="1010" />
            </Array>
          </mxGeometry>
        </mxCell>
        <mxCell id="CFkPCi290hcitypG1Kth-23" value="&lt;p style=&quot;line-height: 70%;&quot;&gt;&lt;font style=&quot;font-size: 7px;&quot;&gt;GetParticipantDataUseCase&lt;/font&gt;&lt;/p&gt;" style="rounded=1;whiteSpace=wrap;html=1;fillColor=#66FF66;" parent="1" vertex="1">
          <mxGeometry x="525" y="980" width="110" height="20" as="geometry" />
        </mxCell>
        <mxCell id="CFkPCi290hcitypG1Kth-24" style="edgeStyle=orthogonalEdgeStyle;rounded=0;orthogonalLoop=1;jettySize=auto;html=1;entryX=0.5;entryY=0;entryDx=0;entryDy=0;" parent="1" source="CFkPCi290hcitypG1Kth-25" target="CFkPCi290hcitypG1Kth-7" edge="1">
          <mxGeometry relative="1" as="geometry">
            <Array as="points">
              <mxPoint x="580" y="930" />
              <mxPoint x="648" y="930" />
            </Array>
          </mxGeometry>
        </mxCell>
        <mxCell id="CFkPCi290hcitypG1Kth-25" value="&lt;p style=&quot;line-height: 70%;&quot;&gt;&lt;font style=&quot;font-size: 7px;&quot;&gt;GetGroupAllocationPUseCase&lt;/font&gt;&lt;br&gt;&lt;/p&gt;" style="rounded=1;whiteSpace=wrap;html=1;fillColor=#66FF66;" parent="1" vertex="1">
          <mxGeometry x="525" y="900" width="110" height="20" as="geometry" />
        </mxCell>
        <mxCell id="CFkPCi290hcitypG1Kth-26" style="edgeStyle=orthogonalEdgeStyle;rounded=0;orthogonalLoop=1;jettySize=auto;html=1;entryX=0.5;entryY=0;entryDx=0;entryDy=0;" parent="1" source="CFkPCi290hcitypG1Kth-27" target="CFkPCi290hcitypG1Kth-6" edge="1">
          <mxGeometry relative="1" as="geometry">
            <Array as="points">
              <mxPoint x="454" y="1010" />
              <mxPoint x="515" y="1010" />
            </Array>
          </mxGeometry>
        </mxCell>
        <mxCell id="CFkPCi290hcitypG1Kth-27" value="&lt;p style=&quot;line-height: 70%;&quot;&gt;&lt;font style=&quot;font-size: 7px;&quot;&gt;GetInfoScreenDataUseCase&lt;/font&gt;&lt;br&gt;&lt;/p&gt;" style="rounded=1;whiteSpace=wrap;html=1;fillColor=#7EA6E0;" parent="1" vertex="1">
          <mxGeometry x="399" y="980" width="110" height="20" as="geometry" />
        </mxCell>
        <mxCell id="CFkPCi290hcitypG1Kth-28" style="edgeStyle=orthogonalEdgeStyle;rounded=0;orthogonalLoop=1;jettySize=auto;html=1;entryX=0.5;entryY=0;entryDx=0;entryDy=0;" parent="1" source="CFkPCi290hcitypG1Kth-37" target="CFkPCi290hcitypG1Kth-7" edge="1">
          <mxGeometry relative="1" as="geometry">
            <Array as="points">
              <mxPoint x="715" y="1010" />
              <mxPoint x="648" y="1010" />
            </Array>
          </mxGeometry>
        </mxCell>
        <mxCell id="CFkPCi290hcitypG1Kth-29" style="edgeStyle=orthogonalEdgeStyle;rounded=0;orthogonalLoop=1;jettySize=auto;html=1;entryX=0.5;entryY=0;entryDx=0;entryDy=0;" parent="1" source="CFkPCi290hcitypG1Kth-30" target="CFkPCi290hcitypG1Kth-7" edge="1">
          <mxGeometry relative="1" as="geometry">
            <Array as="points">
              <mxPoint x="715" y="970" />
              <mxPoint x="648" y="970" />
            </Array>
          </mxGeometry>
        </mxCell>
        <mxCell id="CFkPCi290hcitypG1Kth-30" value="&lt;p style=&quot;line-height: 70%; font-size: 7px;&quot;&gt;CreateNewParticipantUseCase&lt;br&gt;&lt;/p&gt;" style="rounded=1;whiteSpace=wrap;html=1;fillColor=#66FF66;" parent="1" vertex="1">
          <mxGeometry x="660" y="940" width="110" height="20" as="geometry" />
        </mxCell>
        <mxCell id="CFkPCi290hcitypG1Kth-31" style="edgeStyle=orthogonalEdgeStyle;rounded=0;orthogonalLoop=1;jettySize=auto;html=1;entryX=0.5;entryY=0;entryDx=0;entryDy=0;" parent="1" source="CFkPCi290hcitypG1Kth-32" target="CFkPCi290hcitypG1Kth-23" edge="1">
          <mxGeometry relative="1" as="geometry" />
        </mxCell>
        <mxCell id="CFkPCi290hcitypG1Kth-32" value="&lt;p style=&quot;line-height: 70%;&quot;&gt;&lt;font style=&quot;font-size: 7px;&quot;&gt;GetNextDataEntryUseCase&lt;/font&gt;&lt;/p&gt;" style="rounded=1;whiteSpace=wrap;html=1;fillColor=#66FF66;" parent="1" vertex="1">
          <mxGeometry x="525" y="940" width="110" height="20" as="geometry" />
        </mxCell>
        <mxCell id="CFkPCi290hcitypG1Kth-33" style="edgeStyle=orthogonalEdgeStyle;rounded=0;orthogonalLoop=1;jettySize=auto;html=1;entryX=0.5;entryY=0;entryDx=0;entryDy=0;" parent="1" source="CFkPCi290hcitypG1Kth-34" target="CFkPCi290hcitypG1Kth-7" edge="1">
          <mxGeometry relative="1" as="geometry">
            <Array as="points">
              <mxPoint x="715" y="930" />
              <mxPoint x="648" y="930" />
            </Array>
          </mxGeometry>
        </mxCell>
        <mxCell id="CFkPCi290hcitypG1Kth-34" value="&lt;p style=&quot;line-height: 70%;&quot;&gt;&lt;font style=&quot;font-size: 7px;&quot;&gt;InsertDataPUseCase&lt;/font&gt;&lt;br&gt;&lt;/p&gt;" style="rounded=1;whiteSpace=wrap;html=1;fillColor=#66FF66;" parent="1" vertex="1">
          <mxGeometry x="660" y="900" width="110" height="20" as="geometry" />
        </mxCell>
        <mxCell id="CFkPCi290hcitypG1Kth-35" style="edgeStyle=orthogonalEdgeStyle;rounded=0;orthogonalLoop=1;jettySize=auto;html=1;" parent="1" source="CFkPCi290hcitypG1Kth-36" target="CFkPCi290hcitypG1Kth-6" edge="1">
          <mxGeometry relative="1" as="geometry">
            <Array as="points">
              <mxPoint x="515" y="910" />
            </Array>
          </mxGeometry>
        </mxCell>
        <mxCell id="CFkPCi290hcitypG1Kth-36" value="&lt;p style=&quot;line-height: 70%;&quot;&gt;&lt;font style=&quot;font-size: 7px;&quot;&gt;GetGroupAllocationEUseCase&lt;/font&gt;&lt;br&gt;&lt;/p&gt;" style="rounded=1;whiteSpace=wrap;html=1;fillColor=#7EA6E0;" parent="1" vertex="1">
          <mxGeometry x="399" y="900" width="110" height="20" as="geometry" />
        </mxCell>
        <mxCell id="CFkPCi290hcitypG1Kth-37" value="&lt;p style=&quot;line-height: 70%; font-size: 7px;&quot;&gt;LogMetaDataUseCase&lt;br&gt;&lt;/p&gt;" style="rounded=1;whiteSpace=wrap;html=1;fillColor=#66FF66;" parent="1" vertex="1">
          <mxGeometry x="660" y="980" width="110" height="20" as="geometry" />
        </mxCell>
        <mxCell id="CFkPCi290hcitypG1Kth-38" value="&lt;p style=&quot;line-height: 70%;&quot;&gt;&lt;span style=&quot;font-size: 7px;&quot;&gt;AllocateGroupsUseCase&lt;/span&gt;&lt;/p&gt;" style="rounded=1;whiteSpace=wrap;html=1;fillColor=#00FFFF;" parent="1" vertex="1">
          <mxGeometry x="525" y="825" width="110" height="20" as="geometry" />
        </mxCell>
        <mxCell id="CFkPCi290hcitypG1Kth-39" value="" style="endArrow=classic;html=1;rounded=0;exitX=0.5;exitY=1;exitDx=0;exitDy=0;entryX=0.5;entryY=0;entryDx=0;entryDy=0;" parent="1" source="CFkPCi290hcitypG1Kth-38" target="CFkPCi290hcitypG1Kth-3" edge="1">
          <mxGeometry width="50" height="50" relative="1" as="geometry">
            <mxPoint x="730" y="860" as="sourcePoint" />
            <mxPoint x="780" y="810" as="targetPoint" />
          </mxGeometry>
        </mxCell>
        <mxCell id="CFkPCi290hcitypG1Kth-40" value="" style="endArrow=classic;html=1;rounded=0;exitX=0.5;exitY=1;exitDx=0;exitDy=0;entryX=0.5;entryY=0;entryDx=0;entryDy=0;" parent="1" source="CFkPCi290hcitypG1Kth-38" target="CFkPCi290hcitypG1Kth-25" edge="1">
          <mxGeometry width="50" height="50" relative="1" as="geometry">
            <mxPoint x="658" y="890" as="sourcePoint" />
            <mxPoint x="725" y="910" as="targetPoint" />
          </mxGeometry>
        </mxCell>
        <mxCell id="CFkPCi290hcitypG1Kth-41" value="" style="endArrow=classic;html=1;rounded=0;exitX=0.5;exitY=1;exitDx=0;exitDy=0;entryX=0.5;entryY=0;entryDx=0;entryDy=0;" parent="1" source="CFkPCi290hcitypG1Kth-38" target="CFkPCi290hcitypG1Kth-36" edge="1">
          <mxGeometry width="50" height="50" relative="1" as="geometry">
            <mxPoint x="658" y="890" as="sourcePoint" />
            <mxPoint x="590" y="910" as="targetPoint" />
          </mxGeometry>
        </mxCell>
        <mxCell id="CFkPCi290hcitypG1Kth-42" value="Domain Layer" style="text;html=1;strokeColor=none;fillColor=none;align=left;verticalAlign=middle;whiteSpace=wrap;rounded=0;" parent="1" vertex="1">
          <mxGeometry x="399" y="815" width="110" height="30" as="geometry" />
        </mxCell>
        <mxCell id="CFkPCi290hcitypG1Kth-43" value="Data Layer" style="text;html=1;strokeColor=none;fillColor=none;align=left;verticalAlign=middle;whiteSpace=wrap;rounded=0;" parent="1" vertex="1">
          <mxGeometry x="399" y="1030" width="110" height="30" as="geometry" />
        </mxCell>
        <mxCell id="CFkPCi290hcitypG1Kth-44" style="edgeStyle=orthogonalEdgeStyle;rounded=0;orthogonalLoop=1;jettySize=auto;html=1;entryX=0.5;entryY=0;entryDx=0;entryDy=0;" parent="1" source="CFkPCi290hcitypG1Kth-45" target="CFkPCi290hcitypG1Kth-6" edge="1">
          <mxGeometry relative="1" as="geometry">
            <Array as="points">
              <mxPoint x="515" y="950" />
            </Array>
          </mxGeometry>
        </mxCell>
        <mxCell id="CFkPCi290hcitypG1Kth-45" value="&lt;p style=&quot;line-height: 70%;&quot;&gt;&lt;font style=&quot;font-size: 7px;&quot;&gt;GetNextExperimentStepUseCase&lt;/font&gt;&lt;br&gt;&lt;/p&gt;" style="rounded=1;whiteSpace=wrap;html=1;fillColor=#7EA6E0;" parent="1" vertex="1">
          <mxGeometry x="399" y="940" width="110" height="20" as="geometry" />
        </mxCell>
        <mxCell id="CFkPCi290hcitypG1Kth-53" value="" style="endArrow=classic;startArrow=classic;html=1;rounded=0;entryX=0.5;entryY=1;entryDx=0;entryDy=0;" parent="1" edge="1">
          <mxGeometry width="50" height="50" relative="1" as="geometry">
            <mxPoint x="548.71" y="815" as="sourcePoint" />
            <mxPoint x="548.71" y="785" as="targetPoint" />
          </mxGeometry>
        </mxCell>
        <mxCell id="CFkPCi290hcitypG1Kth-60" value="" style="endArrow=classic;html=1;rounded=0;entryX=1;entryY=0.5;entryDx=0;entryDy=0;startArrow=classic;startFill=1;exitX=0;exitY=0.5;exitDx=0;exitDy=0;dashed=1;" parent="1" source="vBTqLdXRIyOvVhQML8VP-88" target="vBTqLdXRIyOvVhQML8VP-87" edge="1">
          <mxGeometry width="50" height="50" relative="1" as="geometry">
            <mxPoint x="631" y="625" as="sourcePoint" />
            <mxPoint x="540" y="683" as="targetPoint" />
          </mxGeometry>
        </mxCell>
        <mxCell id="CFkPCi290hcitypG1Kth-61" value="" style="endArrow=classic;html=1;rounded=0;startArrow=classic;startFill=1;dashed=1;entryX=1;entryY=0.5;entryDx=0;entryDy=0;exitX=0;exitY=0.5;exitDx=0;exitDy=0;" parent="1" source="vBTqLdXRIyOvVhQML8VP-89" target="vBTqLdXRIyOvVhQML8VP-88" edge="1">
          <mxGeometry width="50" height="50" relative="1" as="geometry">
            <mxPoint x="685" y="710" as="sourcePoint" />
            <mxPoint x="645" y="710" as="targetPoint" />
          </mxGeometry>
        </mxCell>
        <mxCell id="CFkPCi290hcitypG1Kth-62" value="User Interface Layer" style="text;html=1;strokeColor=none;fillColor=none;align=left;verticalAlign=middle;whiteSpace=wrap;rounded=0;" parent="1" vertex="1">
          <mxGeometry x="399" y="680" width="111" height="30" as="geometry" />
        </mxCell>
        <mxCell id="CFkPCi290hcitypG1Kth-63" value="" style="endArrow=classic;startArrow=classic;html=1;rounded=0;entryX=0.5;entryY=1;entryDx=0;entryDy=0;" parent="1" edge="1">
          <mxGeometry width="50" height="50" relative="1" as="geometry">
            <mxPoint x="639.33" y="815" as="sourcePoint" />
            <mxPoint x="639.33" y="785" as="targetPoint" />
          </mxGeometry>
        </mxCell>
        <mxCell id="CFkPCi290hcitypG1Kth-64" value="" style="endArrow=classic;startArrow=classic;html=1;rounded=0;entryX=0.5;entryY=1;entryDx=0;entryDy=0;" parent="1" edge="1">
          <mxGeometry width="50" height="50" relative="1" as="geometry">
            <mxPoint x="729.83" y="815" as="sourcePoint" />
            <mxPoint x="729.83" y="785" as="targetPoint" />
          </mxGeometry>
        </mxCell>
      </root>
    </mxGraphModel>
  </diagram>
</mxfile>
